<svg xmlns="http://www.w3.org/2000/svg" fill="none" viewBox="0 0 32 32" class="size-8">
  <path fill="var(--color-brand)" fill-opacity="0.8" d="M1.818 11.007v9.778c0 3.05 2.432 5.608 5.62 5.896a95 95 0 0 0 17.06 0c3.187-.288 5.619-2.846 5.619-5.896v-9.778c0-3.05-2.432-5.608-5.619-5.896a95 95 0 0 0-17.06 0c-3.188.288-5.62 2.846-5.62 5.896"/>
  <path fill="var(--color-border)" fill-opacity="0.8" d="M28.445 7.956a.723.723 0 0 0-.003-.993 6.3 6.3 0 0 0-3.945-1.852 95 95 0 0 0-17.06 0 6.28 6.28 0 0 0-4.054 1.974.72.72 0 0 0 .032.996l8.062 8.062c2.156 2.156 5.684 2.246 8.142.195a95 95 0 0 0 8.826-8.382"/>
</svg>
